<svg width="60" height="52" viewBox="0 0 60 52" fill="none" xmlns="http://www.w3.org/2000/svg">
<path d="M25.4777 4.55275L3.01925 42.0454C2.55621 42.8473 2.31121 43.7564 2.30861 44.6824C2.30602 45.6084 2.54593 46.5189 3.00448 47.3233C3.46302 48.1278 4.12422 48.7982 4.92228 49.2678C5.72034 49.7374 6.62746 49.9898 7.55337 50H52.4703C53.3962 49.9898 54.3033 49.7374 55.1014 49.2678C55.8995 48.7982 56.5607 48.1278 57.0192 47.3233C57.4778 46.5189 57.7177 45.6084 57.7151 44.6824C57.7125 43.7564 57.4675 42.8473 57.0044 42.0454L34.546 4.55275C34.0733 3.77348 33.4077 3.12919 32.6135 2.68205C31.8193 2.2349 30.9233 2 30.0118 2C29.1004 2 28.2044 2.2349 27.4102 2.68205C26.616 3.12919 25.9504 3.77348 25.4777 4.55275V4.55275Z" stroke="#C42D96" stroke-width="4" stroke-linecap="round" stroke-linejoin="round"/>
<path d="M30.0117 18.1816V28.7878" stroke="#C42D96" stroke-width="4" stroke-linecap="round" stroke-linejoin="round"/>
<path d="M30.0117 39.3936H30.0382" stroke="#C42D96" stroke-width="4" stroke-linecap="round" stroke-linejoin="round"/>
</svg>
