<?xml version="1.0" encoding="UTF-8" standalone="no"?>
<!DOCTYPE svg PUBLIC "-//W3C//DTD SVG 1.1//EN" "http://www.w3.org/Graphics/SVG/1.1/DTD/svg11.dtd">
<svg width="100%" height="100%" viewBox="0 0 40 40" version="1.1" xmlns="http://www.w3.org/2000/svg" xmlns:xlink="http://www.w3.org/1999/xlink" xml:space="preserve" xmlns:serif="http://www.serif.com/" style="fill-rule:evenodd;clip-rule:evenodd;stroke-linejoin:round;stroke-miterlimit:2;">
    <g id="EAC">
        <circle cx="20" cy="20" r="20" style="fill:white;"/>
        <path d="M12.562,8.471L6.612,8.471L6.612,31.529L12.562,31.529L12.562,28.554L9.587,28.554L9.587,21.116L12.562,21.116L12.562,18.884L9.587,18.884L9.587,11.446L12.562,11.446L12.562,8.471Z" style="fill:rgb(158,37,121);fill-rule:nonzero;"/>
        <path d="M18.512,21.116L18.512,31.529L15.537,31.529L15.537,8.471L24.463,8.471L24.463,31.529L21.488,31.529L21.488,21.116L18.512,21.116ZM18.512,18.884L21.488,18.884L21.488,10.703L18.512,10.703L18.512,18.884Z" style="fill:rgb(158,37,121);fill-rule:nonzero;"/>
        <path d="M33.388,8.471L27.438,8.471L27.438,31.529L33.388,31.529L33.388,28.554L30.413,28.554L30.413,11.446L33.388,11.446L33.388,8.471Z" style="fill:rgb(158,37,121);fill-rule:nonzero;"/>
    </g>
</svg>
