<?xml version="1.0" encoding="UTF-8" standalone="no"?>
<!DOCTYPE svg PUBLIC "-//W3C//DTD SVG 1.1//EN" "http://www.w3.org/Graphics/SVG/1.1/DTD/svg11.dtd">
<svg width="100%" height="100%" viewBox="0 0 40 40" version="1.1" xmlns="http://www.w3.org/2000/svg" xmlns:xlink="http://www.w3.org/1999/xlink" xml:space="preserve" xmlns:serif="http://www.serif.com/" style="fill-rule:evenodd;clip-rule:evenodd;">
	<circle cx="20" cy="20" r="20" style="fill:white;"/>
	<path d="M32.372,15.612L32.372,11.055C20.795,4.545 4.5,9.058 4.5,19.866C4.5,31.917 20.794,34.926 32.372,29.066L32.372,24.292C28.084,25.811 20.794,25.377 20.794,19.952C20.794,14.527 27.157,13.769 32.372,15.612ZM13.688,21.684C13.259,21.684 13.044,21.684 12.615,21.47L12.615,18.98C12.713,19.032 12.829,19.109 13.688,19.109C14.546,19.109 15.619,18.465 15.619,17.177C15.619,15.89 14.584,15.246 13.688,15.246C12.805,15.246 11.756,16.104 11.756,17.177L11.709,27.055C10.588,27.012 9.423,26.347 9.211,25.136L9.208,16.852C9.222,14.664 11.193,12.671 13.592,12.671C16.009,12.671 18.194,14.602 18.194,17.224C18.194,19.844 15.834,21.684 13.688,21.684Z" style="fill:rgb(158,37,121);"/>
	<path d="M28.847,17.418L28.847,19.779L30.564,19.779L30.564,22.569L33.998,22.569L33.998,19.779L35.5,19.779L35.5,17.418L28.847,17.418Z" style="fill:rgb(158,37,121);"/>
</svg>
