<?xml version="1.0" encoding="UTF-8" standalone="no"?>
<!DOCTYPE svg PUBLIC "-//W3C//DTD SVG 1.1//EN" "http://www.w3.org/Graphics/SVG/1.1/DTD/svg11.dtd">
<svg width="100%" height="100%" viewBox="0 0 40 40" version="1.1" xmlns="http://www.w3.org/2000/svg" xmlns:xlink="http://www.w3.org/1999/xlink" xml:space="preserve" xmlns:serif="http://www.serif.com/" style="fill-rule:evenodd;clip-rule:evenodd;">
	<circle cx="20" cy="20" r="20" style="fill:white;"/>
	<path id="c" d="M16.428,11.485C12.062,11.541 8.5,15.368 8.5,20C8.5,24.671 12.123,28.515 16.526,28.515C16.559,28.515 16.591,28.515 16.624,28.514" style="fill:none;fill-rule:nonzero;stroke:rgb(158,37,121);stroke-width:3.13px;"/>
	<path id="c1" serif:id="c" d="M23.866,11.485C19.501,11.541 15.938,15.368 15.938,20C15.938,24.671 19.561,28.515 23.964,28.515C23.997,28.515 24.029,28.515 24.062,28.514" style="fill:none;fill-rule:nonzero;stroke:rgb(158,37,121);stroke-width:3.13px;"/>
	<path id="c2" serif:id="c" d="M31.304,11.485C26.939,11.541 23.376,15.368 23.376,20C23.376,24.671 26.999,28.515 31.402,28.515C31.435,28.515 31.467,28.515 31.5,28.514" style="fill:none;fill-rule:nonzero;stroke:rgb(158,37,121);stroke-width:3.13px;"/>
</svg>
