<?xml version="1.0" encoding="UTF-8" standalone="no"?>
<!DOCTYPE svg PUBLIC "-//W3C//DTD SVG 1.1//EN" "http://www.w3.org/Graphics/SVG/1.1/DTD/svg11.dtd">
<svg width="100%" height="100%" viewBox="0 0 40 40" version="1.1" xmlns="http://www.w3.org/2000/svg" xmlns:xlink="http://www.w3.org/1999/xlink" xml:space="preserve" xmlns:serif="http://www.serif.com/" style="fill-rule:evenodd;clip-rule:evenodd;">
	<circle cx="20" cy="20" r="20" style="fill:white;"/>
	<path d="M19.333,29.95C19.001,29.983 18.667,30 18.333,30C15.681,30 13.138,28.946 11.262,27.071C9.387,25.196 8.333,22.652 8.333,20C8.333,17.348 9.387,14.804 11.262,12.929C13.138,11.054 15.681,10 18.333,10C18.667,10 19.001,10.017 19.333,10.05L19.333,13.05C19.002,13.01 18.667,12.993 18.333,13C16.477,13 14.696,13.738 13.384,15.05C12.071,16.363 11.333,18.144 11.333,20C11.333,21.857 12.071,23.637 13.384,24.95C14.696,26.263 16.477,27 18.333,27C18.667,27.007 19.002,26.99 19.333,26.95L19.333,29.95Z" style="fill:rgb(158,37,121);"/>
	<path d="M31.134,29.95C30.802,29.983 30.468,30 30.134,30C27.482,30 24.938,28.946 23.063,27.071C21.187,25.196 20.134,22.652 20.134,20C20.134,17.348 21.187,14.804 23.063,12.929C24.938,11.054 27.482,10 30.134,10C30.468,10 30.802,10.017 31.134,10.05L31.134,13.05C30.802,13.01 30.468,12.993 30.134,13C28.538,13 26.99,13.545 25.746,14.546C24.502,15.546 23.638,16.941 23.296,18.5L29.134,18.5L29.134,21.5L23.296,21.5C23.638,23.059 24.502,24.454 25.746,25.455C26.99,26.455 28.538,27 30.134,27C30.468,27.007 30.802,26.99 31.134,26.95L31.134,29.95Z" style="fill:rgb(158,37,121);"/>
</svg>
