<?xml version="1.0" encoding="UTF-8" standalone="no"?>
<!DOCTYPE svg PUBLIC "-//W3C//DTD SVG 1.1//EN" "http://www.w3.org/Graphics/SVG/1.1/DTD/svg11.dtd">
<svg width="100%" height="100%" viewBox="0 0 1024 1024" version="1.1" xmlns="http://www.w3.org/2000/svg" xmlns:xlink="http://www.w3.org/1999/xlink" xml:space="preserve" xmlns:serif="http://www.serif.com/" style="fill-rule:evenodd;clip-rule:evenodd;stroke-linejoin:round;stroke-miterlimit:2;">
    <path fill="#9c9c9c" d="M512,0c70.667,0 137,13.333 199,40c62.667,26.667 117.167,63.167 163.5,109.5c46.333,46.333 82.833,100.833 109.5,163.5c26.667,62 40,128.333 40,199c0,70.667 -13.333,137 -40,199c-26.667,62.667 -63.167,117.167 -109.5,163.5c-46.333,46.333 -100.833,82.833 -163.5,109.5c-62,26.667 -128.333,40 -199,40c-70.667,0 -137,-13.333 -199,-40c-62.667,-26.667 -117.167,-63.167 -163.5,-109.5c-46.333,-46.333 -82.833,-100.833 -109.5,-163.5c-26.667,-62 -40,-128.333 -40,-199c0,-70.667 13.333,-137 40,-199c26.667,-62.667 63.167,-117.167 109.5,-163.5c46.333,-46.333 100.833,-82.833 163.5,-109.5c62,-26.667 128.333,-40 199,-40Zm0,21c-68,0 -131.667,13 -191,39c-59.333,25.333 -111.333,60.333 -156,105c-44.667,44.667 -79.667,96.667 -105,156c-26,59.333 -39,123 -39,191c0,68 13,131.667 39,191c25.333,59.333 60.333,111.333 105,156c44.667,44.667 96.667,79.667 156,105c59.333,26 123,39 191,39c68,0 131.667,-13 191,-39c59.333,-25.333 111.333,-60.333 156,-105c44.667,-44.667 79.667,-96.667 105,-156c26,-59.333 39,-123 39,-191c0,-68 -13,-131.667 -39,-191c-25.333,-59.333 -60.333,-111.333 -105,-156c-44.667,-44.667 -96.667,-79.667 -156,-105c-59.333,-26 -123,-39 -191,-39Zm199.035,342.436l-68.005,320.712c-5.135,22.631 -18.511,28.264 -37.52,17.609l-103.626,-76.359l-49.994,48.094c-5.537,5.537 -10.156,10.157 -20.828,10.157l7.453,-105.525l192.04,-173.53c8.354,-7.437 -1.819,-11.573 -12.973,-4.121l-237.415,149.499l-102.209,-31.999c-22.229,-6.937 -22.631,-22.228 4.635,-32.9l399.775,-154.022c18.51,-6.937 34.703,4.121 28.667,32.401l-0,-0.016Z"/>
</svg>
