<svg width="210" height="58" viewBox="0 0 210 58" fill="none" xmlns="http://www.w3.org/2000/svg">
<path d="M31.4531 23.2919C35.3778 25.6153 35.3778 31.2948 31.4531 33.6182L9.20491 46.7887C5.20526 49.1564 0.148437 46.2735 0.148438 41.6256L0.148439 15.2846C0.148439 10.6366 5.20528 7.7537 9.20492 10.1214L31.4531 23.2919Z" fill="#9E2579"/>
<path d="M39.7233 24.0718C43.04 26.0537 43.04 30.8582 39.7233 32.8401L16.181 46.9079C12.7768 48.9421 8.45405 46.4894 8.45405 42.5237L8.45405 14.3881C8.45405 10.4224 12.7768 7.96979 16.181 10.004L39.7233 24.0718Z" stroke="#9E2579" stroke-width="1.78555"/>
<path d="M66.4907 13.647L62.0854 25.7723H58.9609L54.575 13.647H57.6994L60.591 21.8958L63.5797 13.647H66.4907Z" fill="#9E2579"/>
<path d="M67.435 13.647H70.4624V25.7723H67.435V13.647ZM68.9487 11.9567C68.3924 11.9567 67.9395 11.7689 67.5902 11.3933C67.2409 11.0176 67.0662 10.5519 67.0662 9.99593C67.0662 9.44 67.2409 8.97423 67.5902 8.5986C67.9395 8.22297 68.3924 8.03516 68.9487 8.03516C69.505 8.03516 69.9578 8.21546 70.3072 8.57606C70.6565 8.93666 70.8311 9.38742 70.8311 9.92832C70.8311 10.5143 70.6565 11.0026 70.3072 11.3933C69.9578 11.7689 69.505 11.9567 68.9487 11.9567Z" fill="#9E2579"/>
<path d="M83.6159 9.04935V25.7723H80.7243V24.375C79.9739 25.4267 78.8872 25.9526 77.464 25.9526C76.4807 25.9526 75.588 25.6972 74.7859 25.1863C73.9967 24.6755 73.3756 23.9467 72.9228 23.0002C72.47 22.0536 72.2436 20.9567 72.2436 19.7097C72.2436 18.4626 72.47 17.3657 72.9228 16.4192C73.3756 15.4726 73.9967 14.7439 74.7859 14.233C75.588 13.7222 76.4807 13.4667 77.464 13.4667C78.7966 13.4667 79.8381 13.955 80.5885 14.9317V9.04935H83.6159ZM77.988 23.0678C78.7513 23.0678 79.3853 22.7673 79.8898 22.1663C80.3944 21.5502 80.6467 20.7314 80.6467 19.7097C80.6467 18.688 80.3944 17.8766 79.8898 17.2756C79.3853 16.6596 78.7513 16.3516 77.988 16.3516C77.2117 16.3516 76.5713 16.6596 76.0667 17.2756C75.5621 17.8766 75.3098 18.688 75.3098 19.7097C75.3098 20.7314 75.5621 21.5502 76.0667 22.1663C76.5713 22.7673 77.2117 23.0678 77.988 23.0678Z" fill="#9E2579"/>
<path d="M96.3542 19.7547C96.3542 19.7998 96.3348 20.1153 96.296 20.7013H88.3974C88.5397 21.4526 88.8761 22.0461 89.4066 22.4818C89.937 22.9175 90.5969 23.1354 91.3861 23.1354C91.9295 23.1354 92.4082 23.0452 92.8222 22.8649C93.2491 22.6696 93.6437 22.3691 94.006 21.9634L95.6167 23.9918C94.6335 25.299 93.1974 25.9526 91.3084 25.9526C90.1311 25.9526 89.0896 25.6897 88.184 25.1638C87.2783 24.6229 86.5797 23.8791 86.088 22.9325C85.5964 21.986 85.3506 20.9117 85.3506 19.7097C85.3506 18.5227 85.5899 17.4559 86.0686 16.5093C86.5603 15.5477 87.2266 14.804 88.0675 14.2781C88.9214 13.7372 89.8723 13.4667 90.9203 13.4667C91.9424 13.4667 92.8674 13.7222 93.6955 14.233C94.5235 14.7439 95.1704 15.4801 95.6361 16.4417C96.1148 17.3883 96.3542 18.4926 96.3542 19.7547ZM90.9397 16.1262C90.254 16.1262 89.6783 16.3516 89.2125 16.8023C88.7467 17.2531 88.4621 17.8691 88.3586 18.6504H93.5014C93.3979 17.8841 93.1133 17.2756 92.6475 16.8248C92.1817 16.3591 91.6125 16.1262 90.9397 16.1262Z" fill="#9E2579"/>
<path d="M103.047 25.9526C101.947 25.9526 100.957 25.6897 100.078 25.1638C99.2107 24.6229 98.5315 23.8791 98.0398 22.9325C97.5482 21.986 97.3024 20.9117 97.3024 19.7097C97.3024 18.5077 97.5482 17.4334 98.0398 16.4868C98.5315 15.5402 99.2107 14.804 100.078 14.2781C100.957 13.7372 101.947 13.4667 103.047 13.4667C104.147 13.4667 105.13 13.7372 105.997 14.2781C106.863 14.804 107.543 15.5402 108.034 16.4868C108.526 17.4334 108.772 18.5077 108.772 19.7097C108.772 20.9117 108.526 21.986 108.034 22.9325C107.543 23.8791 106.863 24.6229 105.997 25.1638C105.13 25.6897 104.147 25.9526 103.047 25.9526ZM103.047 23.0678C103.823 23.0678 104.457 22.7673 104.949 22.1663C105.453 21.5502 105.706 20.7314 105.706 19.7097C105.706 18.688 105.453 17.8766 104.949 17.2756C104.457 16.6596 103.823 16.3516 103.047 16.3516C102.271 16.3516 101.63 16.6596 101.126 17.2756C100.621 17.8766 100.369 18.688 100.369 19.7097C100.369 20.7314 100.621 21.5502 101.126 22.1663C101.63 22.7673 102.271 23.0678 103.047 23.0678Z" fill="#9E2579"/>
<path d="M110.306 18.0193H115.798V20.8365H110.306V18.0193Z" fill="#9E2579"/>
<path d="M121.401 25.9526C120.535 25.9526 119.687 25.8324 118.859 25.592C118.031 25.3366 117.371 25.021 116.88 24.6454L117.889 22.1212C118.354 22.4668 118.917 22.7522 119.577 22.9776C120.237 23.188 120.884 23.2931 121.518 23.2931C122.799 23.2931 123.439 22.925 123.439 22.1888C123.439 21.8432 123.264 21.5953 122.915 21.4451C122.566 21.2948 122.029 21.1671 121.304 21.0619C120.45 20.9117 119.745 20.7389 119.189 20.5436C118.633 20.3482 118.147 20.0027 117.733 19.5068C117.332 19.011 117.132 18.3048 117.132 17.3883C117.132 16.622 117.319 15.9459 117.695 15.3599C118.083 14.7589 118.639 14.2931 119.364 13.9626C120.101 13.632 120.968 13.4667 121.964 13.4667C122.702 13.4667 123.433 13.5644 124.157 13.7597C124.895 13.94 125.503 14.1954 125.981 14.526L124.972 17.0277C124.054 16.4267 123.051 16.1262 121.964 16.1262C121.317 16.1262 120.832 16.2314 120.509 16.4417C120.185 16.6521 120.023 16.9225 120.023 17.2531C120.023 17.6287 120.198 17.8916 120.547 18.0419C120.897 18.1921 121.453 18.3349 122.216 18.4701C123.07 18.6354 123.769 18.8157 124.312 19.011C124.856 19.1913 125.328 19.5294 125.729 20.0252C126.13 20.521 126.331 21.2122 126.331 22.0987C126.331 22.8499 126.137 23.5185 125.748 24.1045C125.36 24.6905 124.791 25.1488 124.041 25.4793C123.303 25.7948 122.423 25.9526 121.401 25.9526Z" fill="#9E2579"/>
<path d="M134.253 13.4667C135.547 13.4667 136.589 13.9175 137.378 14.819C138.18 15.7205 138.581 17.0577 138.581 18.8307V25.7723H135.554V19.3716C135.554 18.41 135.373 17.6963 135.01 17.2305C134.648 16.7497 134.124 16.5093 133.438 16.5093C132.675 16.5093 132.067 16.7873 131.614 17.3432C131.161 17.8841 130.935 18.6955 130.935 19.7773V25.7723H127.907V9.04935H130.935V14.9091C131.336 14.4434 131.821 14.0903 132.39 13.8499C132.96 13.5944 133.581 13.4667 134.253 13.4667Z" fill="#9E2579"/>
<path d="M146.116 25.9526C145.016 25.9526 144.027 25.6897 143.147 25.1638C142.28 24.6229 141.601 23.8791 141.109 22.9325C140.618 21.986 140.372 20.9117 140.372 19.7097C140.372 18.5077 140.618 17.4334 141.109 16.4868C141.601 15.5402 142.28 14.804 143.147 14.2781C144.027 13.7372 145.016 13.4667 146.116 13.4667C147.216 13.4667 148.199 13.7372 149.066 14.2781C149.933 14.804 150.612 15.5402 151.104 16.4868C151.595 17.4334 151.841 18.5077 151.841 19.7097C151.841 20.9117 151.595 21.986 151.104 22.9325C150.612 23.8791 149.933 24.6229 149.066 25.1638C148.199 25.6897 147.216 25.9526 146.116 25.9526ZM146.116 23.0678C146.892 23.0678 147.526 22.7673 148.018 22.1663C148.523 21.5502 148.775 20.7314 148.775 19.7097C148.775 18.688 148.523 17.8766 148.018 17.2756C147.526 16.6596 146.892 16.3516 146.116 16.3516C145.34 16.3516 144.699 16.6596 144.195 17.2756C143.69 17.8766 143.438 18.688 143.438 19.7097C143.438 20.7314 143.69 21.5502 144.195 22.1663C144.699 22.7673 145.34 23.0678 146.116 23.0678Z" fill="#9E2579"/>
<path d="M159.745 13.4667C160.715 13.4667 161.595 13.7297 162.384 14.2555C163.186 14.7664 163.814 15.4951 164.267 16.4417C164.72 17.3733 164.946 18.4626 164.946 19.7097C164.946 20.9567 164.72 22.0536 164.267 23.0002C163.814 23.9317 163.186 24.6604 162.384 25.1863C161.595 25.6972 160.715 25.9526 159.745 25.9526C158.412 25.9526 157.364 25.4643 156.601 24.4876V30.1446H153.574V13.647H156.465V15.0444C157.216 13.9926 158.309 13.4667 159.745 13.4667ZM159.221 23.0678C159.997 23.0678 160.631 22.7673 161.123 22.1663C161.627 21.5502 161.88 20.7314 161.88 19.7097C161.88 18.688 161.627 17.8766 161.123 17.2756C160.631 16.6596 159.997 16.3516 159.221 16.3516C158.445 16.3516 157.804 16.6596 157.3 17.2756C156.808 17.8766 156.562 18.688 156.562 19.7097C156.562 20.7314 156.808 21.5502 157.3 22.1663C157.804 22.7673 158.445 23.0678 159.221 23.0678Z" fill="#9E2579"/>
<path d="M176.909 19.7547C176.909 19.7998 176.889 20.1153 176.851 20.7013H168.952C169.094 21.4526 169.431 22.0461 169.961 22.4818C170.492 22.9175 171.152 23.1354 171.941 23.1354C172.484 23.1354 172.963 23.0452 173.377 22.8649C173.804 22.6696 174.198 22.3691 174.561 21.9634L176.171 23.9918C175.188 25.299 173.752 25.9526 171.863 25.9526C170.686 25.9526 169.644 25.6897 168.739 25.1638C167.833 24.6229 167.134 23.8791 166.643 22.9325C166.151 21.986 165.905 20.9117 165.905 19.7097C165.905 18.5227 166.145 17.4559 166.623 16.5093C167.115 15.5477 167.781 14.804 168.622 14.2781C169.476 13.7372 170.427 13.4667 171.475 13.4667C172.497 13.4667 173.422 13.7222 174.25 14.233C175.078 14.7439 175.725 15.4801 176.191 16.4417C176.67 17.3883 176.909 18.4926 176.909 19.7547ZM171.494 16.1262C170.809 16.1262 170.233 16.3516 169.767 16.8023C169.301 17.2531 169.017 17.8691 168.913 18.6504H174.056C173.953 17.8841 173.668 17.2756 173.202 16.8248C172.736 16.3591 172.167 16.1262 171.494 16.1262Z" fill="#9E2579"/>
<path d="M181.525 15.2472C181.887 14.6612 182.372 14.218 182.98 13.9175C183.601 13.617 184.313 13.4667 185.115 13.4667V16.7122C184.779 16.6821 184.552 16.6671 184.436 16.6671C183.569 16.6671 182.89 16.9526 182.398 17.5235C181.907 18.0794 181.661 18.9208 181.661 20.0477V25.7723H178.633V13.647H181.525V15.2472Z" fill="#9E2579"/>
<path d="M187.656 25.9526C187.125 25.9526 186.679 25.7422 186.316 25.3215C185.954 24.9008 185.773 24.375 185.773 23.7439C185.773 23.0978 185.954 22.5795 186.316 22.1888C186.679 21.7831 187.125 21.5803 187.656 21.5803C188.186 21.5803 188.632 21.7831 188.995 22.1888C189.357 22.5795 189.538 23.0978 189.538 23.7439C189.538 24.375 189.357 24.9008 188.995 25.3215C188.632 25.7422 188.186 25.9526 187.656 25.9526Z" fill="#9E2579"/>
<path d="M194.19 15.2472C194.552 14.6612 195.038 14.218 195.646 13.9175C196.267 13.617 196.978 13.4667 197.78 13.4667V16.7122C197.444 16.6821 197.218 16.6671 197.101 16.6671C196.234 16.6671 195.555 16.9526 195.063 17.5235C194.572 18.0794 194.326 18.9208 194.326 20.0477V25.7723H191.299V13.647H194.19V15.2472Z" fill="#9E2579"/>
<path d="M209.884 13.647V25.7723H207.011V24.3299C206.61 24.8558 206.132 25.2614 205.575 25.5469C205.019 25.8174 204.417 25.9526 203.771 25.9526C202.399 25.9526 201.312 25.4943 200.51 24.5778C199.708 23.6613 199.307 22.3015 199.307 20.4985V13.647H202.334V19.9801C202.334 21.9334 203.04 22.91 204.45 22.91C205.174 22.91 205.757 22.6396 206.196 22.0987C206.636 21.5427 206.856 20.7239 206.856 19.642V13.647H209.884Z" fill="#9E2579"/>
<path d="M56.1272 34.8323H56.7741V41.5185L61.587 34.8323H62.1562V42.6754H61.5093V35.9893L56.6965 42.6754H56.1272V34.8323Z" fill="#9E2579"/>
<path d="M67.275 34.8323H67.9218V38.4083H72.5018V34.8323H73.1487V42.6754H72.5018V39.0694H67.9218V42.6754H67.275V34.8323Z" fill="#9E2579"/>
<path d="M82.7864 35.5085H80.1471V42.6754H79.5002V35.5085H76.8609V34.8323H82.7864V35.5085Z" fill="#9E2579"/>
<path d="M91.9417 38.9342H86.1327C86.1499 39.5452 86.2836 40.0911 86.5337 40.5719C86.7839 41.0427 87.1202 41.4083 87.5429 41.6688C87.9741 41.9292 88.4571 42.0594 88.9919 42.0594C89.4318 42.0594 89.8372 41.9693 90.2081 41.789C90.5876 41.5986 90.9024 41.3232 91.1525 40.9626L91.5277 41.4584C91.2345 41.8691 90.8636 42.1846 90.4151 42.405C89.9752 42.6254 89.4965 42.7355 88.979 42.7355C88.3062 42.7355 87.7068 42.5653 87.1806 42.2247C86.6545 41.8841 86.2405 41.4133 85.9386 40.8123C85.6453 40.2113 85.4987 39.5252 85.4987 38.7539C85.4987 37.9926 85.6367 37.3115 85.9127 36.7105C86.1973 36.0995 86.5855 35.6237 87.0771 35.2831C87.5687 34.9425 88.1208 34.7722 88.7332 34.7722C89.3455 34.7722 89.8932 34.9425 90.3763 35.2831C90.8679 35.6136 91.2517 36.0794 91.5277 36.6804C91.8124 37.2814 91.9547 37.9626 91.9547 38.7238L91.9417 38.9342ZM88.7332 35.4333C88.2588 35.4333 87.8318 35.5586 87.4523 35.809C87.0728 36.0494 86.7666 36.3949 86.5337 36.8457C86.3095 37.2864 86.1801 37.7873 86.1456 38.3482H91.3207C91.2948 37.7873 91.1655 37.2864 90.9326 36.8457C90.6997 36.405 90.3935 36.0594 90.014 35.809C89.6345 35.5586 89.2075 35.4333 88.7332 35.4333Z" fill="#9E2579"/>
<path d="M99.7999 34.7722C100.429 34.7722 100.999 34.9425 101.508 35.2831C102.017 35.6237 102.413 36.0944 102.698 36.6955C102.991 37.2965 103.138 37.9826 103.138 38.7539C103.138 39.5252 102.991 40.2163 102.698 40.8274C102.413 41.4284 102.017 41.8991 101.508 42.2397C100.999 42.5703 100.429 42.7355 99.7999 42.7355C99.2047 42.7355 98.6656 42.5753 98.1826 42.2547C97.6996 41.9242 97.3244 41.4684 97.057 40.8875V45.5903H96.4101V34.8323H97.0312V36.6804C97.2985 36.0794 97.6737 35.6136 98.1567 35.2831C98.6484 34.9425 99.1961 34.7722 99.7999 34.7722ZM99.761 42.0594C100.279 42.0594 100.744 41.9192 101.158 41.6387C101.572 41.3582 101.896 40.9676 102.129 40.4668C102.37 39.9659 102.491 39.395 102.491 38.7539C102.491 38.1128 102.37 37.5419 102.129 37.041C101.896 36.5402 101.572 36.1495 101.158 35.8691C100.744 35.5886 100.279 35.4484 99.761 35.4484C99.2435 35.4484 98.7778 35.5886 98.3638 35.8691C97.9584 36.1495 97.6349 36.5402 97.3934 37.041C97.1605 37.5419 97.0441 38.1128 97.0441 38.7539C97.0441 39.395 97.1605 39.9659 97.3934 40.4668C97.6349 40.9676 97.9584 41.3582 98.3638 41.6387C98.7778 41.9192 99.2435 42.0594 99.761 42.0594Z" fill="#9E2579"/>
<path d="M107.57 34.8323H108.217V38.4083H112.797V34.8323H113.444V42.6754H112.797V39.0694H108.217V42.6754H107.57V34.8323Z" fill="#9E2579"/>
<path d="M124.324 38.9342H118.515C118.532 39.5452 118.666 40.0911 118.916 40.5719C119.166 41.0427 119.502 41.4083 119.925 41.6688C120.356 41.9292 120.839 42.0594 121.374 42.0594C121.814 42.0594 122.219 41.9693 122.59 41.789C122.97 41.5986 123.284 41.3232 123.535 40.9626L123.91 41.4584C123.616 41.8691 123.246 42.1846 122.797 42.405C122.357 42.6254 121.878 42.7355 121.361 42.7355C120.688 42.7355 120.089 42.5653 119.563 42.2247C119.036 41.8841 118.622 41.4133 118.321 40.8123C118.027 40.2113 117.881 39.5252 117.881 38.7539C117.881 37.9926 118.019 37.3115 118.295 36.7105C118.579 36.0995 118.967 35.6237 119.459 35.2831C119.951 34.9425 120.503 34.7722 121.115 34.7722C121.728 34.7722 122.275 34.9425 122.758 35.2831C123.25 35.6136 123.634 36.0794 123.91 36.6804C124.194 37.2814 124.337 37.9626 124.337 38.7238L124.324 38.9342ZM121.115 35.4333C120.641 35.4333 120.214 35.5586 119.834 35.809C119.455 36.0494 119.149 36.3949 118.916 36.8457C118.691 37.2864 118.562 37.7873 118.528 38.3482H123.703C123.677 37.7873 123.547 37.2864 123.315 36.8457C123.082 36.405 122.775 36.0594 122.396 35.809C122.016 35.5586 121.59 35.4333 121.115 35.4333Z" fill="#9E2579"/>
<path d="M132.979 35.5085H130.339V42.6754H129.692V35.5085H127.053V34.8323H132.979V35.5085Z" fill="#9E2579"/>
<path d="M135.756 38.3031H139.081V38.9793H135.756V38.3031Z" fill="#9E2579"/>
<path d="M150.956 34.8323V42.6754H150.361V36.0343L147.424 41.6688H147.127L144.203 36.0494V42.6754H143.608V34.8323H144.242L147.295 40.7673L150.361 34.8323H150.956Z" fill="#9E2579"/>
<path d="M158.32 34.7722C159.157 34.7722 159.799 35.0227 160.248 35.5235C160.697 36.0143 160.921 36.7405 160.921 37.7021V42.6754H160.3V41.2781C160.084 41.7389 159.769 42.0995 159.355 42.3599C158.941 42.6103 158.445 42.7355 157.867 42.7355C157.117 42.7355 156.522 42.5302 156.082 42.1195C155.651 41.7088 155.435 41.1679 155.435 40.4968C155.435 39.8457 155.634 39.3198 156.03 38.9192C156.436 38.5085 157.078 38.3031 157.958 38.3031H160.274V37.6721C160.274 36.9409 160.101 36.3849 159.756 36.0043C159.42 35.6237 158.924 35.4333 158.269 35.4333C157.82 35.4333 157.389 35.5235 156.975 35.7038C156.569 35.8841 156.224 36.1245 155.94 36.425L155.616 35.8841C155.953 35.5335 156.358 35.2631 156.832 35.0727C157.307 34.8724 157.803 34.7722 158.32 34.7722ZM157.958 42.1195C158.519 42.1195 158.993 41.9693 159.381 41.6688C159.778 41.3683 160.076 40.9325 160.274 40.3616V38.8891H157.971C157.307 38.8891 156.824 39.0294 156.522 39.3098C156.229 39.5903 156.082 39.9759 156.082 40.4668C156.082 40.9776 156.246 41.3833 156.574 41.6838C156.901 41.9743 157.363 42.1195 157.958 42.1195Z" fill="#9E2579"/>
<path d="M170.497 35.5085H166.525V42.6754H165.878V34.8323H170.497V35.5085Z" fill="#9E2579"/>
<path d="M176.446 34.7722C177.283 34.7722 177.926 35.0227 178.374 35.5235C178.823 36.0143 179.047 36.7405 179.047 37.7021V42.6754H178.426V41.2781C178.21 41.7389 177.895 42.0995 177.481 42.3599C177.067 42.6103 176.571 42.7355 175.994 42.7355C175.243 42.7355 174.648 42.5302 174.208 42.1195C173.777 41.7088 173.561 41.1679 173.561 40.4968C173.561 39.8457 173.76 39.3198 174.156 38.9192C174.562 38.5085 175.204 38.3031 176.084 38.3031H178.4V37.6721C178.4 36.9409 178.227 36.3849 177.882 36.0043C177.546 35.6237 177.05 35.4333 176.395 35.4333C175.946 35.4333 175.515 35.5235 175.101 35.7038C174.695 35.8841 174.35 36.1245 174.066 36.425L173.742 35.8841C174.079 35.5335 174.484 35.2631 174.959 35.0727C175.433 34.8724 175.929 34.7722 176.446 34.7722ZM176.084 42.1195C176.645 42.1195 177.119 41.9693 177.507 41.6688C177.904 41.3683 178.202 40.9325 178.4 40.3616V38.8891H176.097C175.433 38.8891 174.95 39.0294 174.648 39.3098C174.355 39.5903 174.208 39.9759 174.208 40.4668C174.208 40.9776 174.372 41.3833 174.7 41.6838C175.028 41.9743 175.489 42.1195 176.084 42.1195Z" fill="#9E2579"/>
<path d="M186.828 38.5886C187.329 38.6988 187.712 38.9192 187.98 39.2497C188.256 39.5703 188.394 39.9659 188.394 40.4367C188.394 40.8975 188.26 41.3032 187.993 41.6537C187.734 42.0043 187.38 42.2748 186.932 42.4651C186.483 42.6554 185.996 42.7506 185.47 42.7506C184.987 42.7506 184.513 42.6654 184.047 42.4951C183.59 42.3148 183.189 42.0594 182.844 41.7289L183.102 41.1729C183.404 41.4734 183.762 41.7038 184.176 41.8641C184.599 42.0244 185.026 42.1045 185.457 42.1045C186.095 42.1045 186.634 41.9492 187.074 41.6387C187.514 41.3182 187.734 40.8975 187.734 40.3766C187.734 39.9158 187.549 39.5552 187.178 39.2948C186.815 39.0243 186.324 38.8891 185.703 38.8891H184.616V38.3182H185.677C186.22 38.3182 186.665 38.193 187.01 37.9425C187.363 37.6921 187.54 37.3566 187.54 36.9359C187.54 36.445 187.346 36.0694 186.958 35.809C186.578 35.5385 186.091 35.4033 185.496 35.4033C184.737 35.4033 184.021 35.6287 183.348 36.0794L183.154 35.4784C183.913 34.9876 184.72 34.7422 185.573 34.7422C186.324 34.7422 186.949 34.9325 187.449 35.3131C187.95 35.6838 188.2 36.1896 188.2 36.8307C188.2 37.2414 188.075 37.602 187.825 37.9125C187.574 38.223 187.242 38.4484 186.828 38.5886Z" fill="#9E2579"/>
<path d="M192.979 34.8323H193.625V41.5185L198.438 34.8323H199.008V42.6754H198.361V35.9893L193.548 42.6754H192.979V34.8323Z" fill="#9E2579"/>
<path d="M204.126 34.8323H204.773V38.4083H209.353V34.8323H210V42.6754H209.353V39.0694H204.773V42.6754H204.126V34.8323Z" fill="#9E2579"/>
</svg>
