<svg width="210" height="58" viewBox="0 0 210 58" fill="none" xmlns="http://www.w3.org/2000/svg">
<path d="M31.453 23.2919C35.3777 25.6153 35.3777 31.2948 31.453 33.6182L9.20484 46.7887C5.2052 49.1564 0.148376 46.2735 0.148376 41.6256L0.148378 15.2846C0.148378 10.6366 5.20522 7.7537 9.20486 10.1214L31.453 23.2919Z" fill="white"/>
<path d="M39.7232 24.0708C43.0398 26.0527 43.0398 30.8572 39.7232 32.8391L16.1809 46.9069C12.7767 48.9411 8.45393 46.4885 8.45393 42.5227L8.45393 14.3872C8.45393 10.4215 12.7767 7.96881 16.1809 10.003L39.7232 24.0708Z" stroke="white" stroke-width="1.78555"/>
<path d="M66.4906 13.6469L62.0852 25.7722H58.9608L54.5748 13.6469H57.6993L60.5909 21.8957L63.5796 13.6469H66.4906Z" fill="white"/>
<path d="M67.4348 13.6469H70.4623V25.7722H67.4348V13.6469ZM68.9486 11.9566C68.3922 11.9566 67.9394 11.7688 67.5901 11.3931C67.2408 11.0175 67.0661 10.5517 67.0661 9.99581C67.0661 9.43988 67.2408 8.9741 67.5901 8.59848C67.9394 8.22285 68.3922 8.03503 68.9486 8.03503C69.5049 8.03503 69.9577 8.21534 70.307 8.57594C70.6564 8.93654 70.831 9.38729 70.831 9.9282C70.831 10.5142 70.6564 11.0025 70.307 11.3931C69.9577 11.7688 69.5049 11.9566 68.9486 11.9566Z" fill="white"/>
<path d="M83.6158 9.04923V25.7722H80.7242V24.3748C79.9738 25.4266 78.887 25.9525 77.4639 25.9525C76.4806 25.9525 75.5879 25.697 74.7857 25.1862C73.9965 24.6753 73.3755 23.9466 72.9227 23C72.4699 22.0535 72.2435 20.9566 72.2435 19.7095C72.2435 18.4625 72.4699 17.3656 72.9227 16.419C73.3755 15.4725 73.9965 14.7437 74.7857 14.2329C75.5879 13.722 76.4806 13.4666 77.4639 13.4666C78.7965 13.4666 79.838 13.9549 80.5884 14.9316V9.04923H83.6158ZM77.9879 23.0676C78.7512 23.0676 79.3851 22.7671 79.8897 22.1661C80.3943 21.5501 80.6466 20.7312 80.6466 19.7095C80.6466 18.6878 80.3943 17.8765 79.8897 17.2755C79.3851 16.6594 78.7512 16.3514 77.9879 16.3514C77.2116 16.3514 76.5712 16.6594 76.0666 17.2755C75.562 17.8765 75.3097 18.6878 75.3097 19.7095C75.3097 20.7312 75.562 21.5501 76.0666 22.1661C76.5712 22.7671 77.2116 23.0676 77.9879 23.0676Z" fill="white"/>
<path d="M96.3541 19.7546C96.3541 19.7997 96.3347 20.1152 96.2958 20.7012H88.3973C88.5396 21.4525 88.876 22.0459 89.4065 22.4817C89.9369 22.9174 90.5967 23.1353 91.3859 23.1353C91.9293 23.1353 92.408 23.0451 92.822 22.8648C93.249 22.6695 93.6436 22.369 94.0059 21.9633L95.6166 23.9917C94.6333 25.2989 93.1972 25.9525 91.3083 25.9525C90.131 25.9525 89.0895 25.6895 88.1838 25.1637C87.2782 24.6227 86.5795 23.879 86.0879 22.9324C85.5963 21.9858 85.3504 20.9115 85.3504 19.7095C85.3504 18.5226 85.5898 17.4558 86.0685 16.5092C86.5601 15.5476 87.2264 14.8038 88.0674 14.278C88.9213 13.7371 89.8722 13.4666 90.9202 13.4666C91.9423 13.4666 92.8673 13.722 93.6953 14.2329C94.5234 14.7437 95.1703 15.48 95.636 16.4416C96.1147 17.3882 96.3541 18.4925 96.3541 19.7546ZM90.9396 16.1261C90.2539 16.1261 89.6782 16.3514 89.2124 16.8022C88.7466 17.2529 88.462 17.869 88.3585 18.6503H93.5013C93.3978 17.884 93.1131 17.2755 92.6474 16.8247C92.1816 16.3589 91.6124 16.1261 90.9396 16.1261Z" fill="white"/>
<path d="M103.047 25.9525C101.947 25.9525 100.957 25.6895 100.077 25.1637C99.2106 24.6227 98.5314 23.879 98.0397 22.9324C97.5481 21.9858 97.3023 20.9115 97.3023 19.7095C97.3023 18.5075 97.5481 17.4332 98.0397 16.4867C98.5314 15.5401 99.2106 14.8038 100.077 14.278C100.957 13.7371 101.947 13.4666 103.047 13.4666C104.146 13.4666 105.13 13.7371 105.996 14.278C106.863 14.8038 107.543 15.5401 108.034 16.4867C108.526 17.4332 108.772 18.5075 108.772 19.7095C108.772 20.9115 108.526 21.9858 108.034 22.9324C107.543 23.879 106.863 24.6227 105.996 25.1637C105.13 25.6895 104.146 25.9525 103.047 25.9525ZM103.047 23.0676C103.823 23.0676 104.457 22.7671 104.949 22.1661C105.453 21.5501 105.705 20.7312 105.705 19.7095C105.705 18.6878 105.453 17.8765 104.949 17.2755C104.457 16.6594 103.823 16.3514 103.047 16.3514C102.27 16.3514 101.63 16.6594 101.125 17.2755C100.621 17.8765 100.369 18.6878 100.369 19.7095C100.369 20.7312 100.621 21.5501 101.125 22.1661C101.63 22.7671 102.27 23.0676 103.047 23.0676Z" fill="white"/>
<path d="M110.306 18.0192H115.798V20.8364H110.306V18.0192Z" fill="white"/>
<path d="M121.401 25.9525C120.534 25.9525 119.687 25.8323 118.859 25.5919C118.031 25.3364 117.371 25.0209 116.879 24.6453L117.889 22.1211C118.354 22.4666 118.917 22.7521 119.577 22.9775C120.237 23.1879 120.884 23.293 121.518 23.293C122.798 23.293 123.439 22.9249 123.439 22.1887C123.439 21.8431 123.264 21.5952 122.915 21.4449C122.566 21.2947 122.029 21.167 121.304 21.0618C120.45 20.9115 119.745 20.7388 119.189 20.5434C118.633 20.3481 118.147 20.0025 117.733 19.5067C117.332 19.0109 117.132 18.3047 117.132 17.3882C117.132 16.6219 117.319 15.9458 117.695 15.3598C118.083 14.7588 118.639 14.293 119.363 13.9624C120.101 13.6319 120.968 13.4666 121.964 13.4666C122.701 13.4666 123.432 13.5643 124.157 13.7596C124.894 13.9399 125.503 14.1953 125.981 14.5259L124.972 17.0276C124.053 16.4266 123.051 16.1261 121.964 16.1261C121.317 16.1261 120.832 16.2312 120.508 16.4416C120.185 16.6519 120.023 16.9224 120.023 17.2529C120.023 17.6286 120.198 17.8915 120.547 18.0418C120.897 18.192 121.453 18.3347 122.216 18.47C123.07 18.6352 123.769 18.8155 124.312 19.0109C124.856 19.1912 125.328 19.5292 125.729 20.0251C126.13 20.5209 126.331 21.2121 126.331 22.0985C126.331 22.8498 126.136 23.5184 125.748 24.1044C125.36 24.6904 124.791 25.1486 124.041 25.4792C123.303 25.7947 122.423 25.9525 121.401 25.9525Z" fill="white"/>
<path d="M134.253 13.4666C135.547 13.4666 136.589 13.9174 137.378 14.8189C138.18 15.7204 138.581 17.0576 138.581 18.8306V25.7722H135.554V19.3715C135.554 18.4099 135.372 17.6962 135.01 17.2304C134.648 16.7496 134.124 16.5092 133.438 16.5092C132.675 16.5092 132.067 16.7872 131.614 17.3431C131.161 17.884 130.935 18.6953 130.935 19.7772V25.7722H127.907V9.04923H130.935V14.909C131.336 14.4432 131.821 14.0902 132.39 13.8497C132.96 13.5943 133.581 13.4666 134.253 13.4666Z" fill="white"/>
<path d="M146.116 25.9525C145.016 25.9525 144.027 25.6895 143.147 25.1637C142.28 24.6227 141.601 23.879 141.109 22.9324C140.617 21.9858 140.372 20.9115 140.372 19.7095C140.372 18.5075 140.617 17.4332 141.109 16.4867C141.601 15.5401 142.28 14.8038 143.147 14.278C144.027 13.7371 145.016 13.4666 146.116 13.4666C147.216 13.4666 148.199 13.7371 149.066 14.278C149.933 14.8038 150.612 15.5401 151.104 16.4867C151.595 17.4332 151.841 18.5075 151.841 19.7095C151.841 20.9115 151.595 21.9858 151.104 22.9324C150.612 23.879 149.933 24.6227 149.066 25.1637C148.199 25.6895 147.216 25.9525 146.116 25.9525ZM146.116 23.0676C146.892 23.0676 147.526 22.7671 148.018 22.1661C148.522 21.5501 148.775 20.7312 148.775 19.7095C148.775 18.6878 148.522 17.8765 148.018 17.2755C147.526 16.6594 146.892 16.3514 146.116 16.3514C145.34 16.3514 144.699 16.6594 144.195 17.2755C143.69 17.8765 143.438 18.6878 143.438 19.7095C143.438 20.7312 143.69 21.5501 144.195 22.1661C144.699 22.7671 145.34 23.0676 146.116 23.0676Z" fill="white"/>
<path d="M159.745 13.4666C160.715 13.4666 161.595 13.7295 162.384 14.2554C163.186 14.7663 163.814 15.495 164.267 16.4416C164.719 17.3731 164.946 18.4625 164.946 19.7095C164.946 20.9566 164.719 22.0535 164.267 23C163.814 23.9316 163.186 24.6603 162.384 25.1862C161.595 25.697 160.715 25.9525 159.745 25.9525C158.412 25.9525 157.364 25.4642 156.601 24.4875V30.1445H153.574V13.6469H156.465V15.0442C157.215 13.9925 158.309 13.4666 159.745 13.4666ZM159.221 23.0676C159.997 23.0676 160.631 22.7671 161.123 22.1661C161.627 21.5501 161.88 20.7312 161.88 19.7095C161.88 18.6878 161.627 17.8765 161.123 17.2755C160.631 16.6594 159.997 16.3514 159.221 16.3514C158.445 16.3514 157.804 16.6594 157.3 17.2755C156.808 17.8765 156.562 18.6878 156.562 19.7095C156.562 20.7312 156.808 21.5501 157.3 22.1661C157.804 22.7671 158.445 23.0676 159.221 23.0676Z" fill="white"/>
<path d="M176.909 19.7546C176.909 19.7997 176.889 20.1152 176.851 20.7012H168.952C169.094 21.4525 169.431 22.0459 169.961 22.4817C170.492 22.9174 171.151 23.1353 171.941 23.1353C172.484 23.1353 172.963 23.0451 173.377 22.8648C173.804 22.6695 174.198 22.369 174.561 21.9633L176.171 23.9917C175.188 25.2989 173.752 25.9525 171.863 25.9525C170.686 25.9525 169.644 25.6895 168.739 25.1637C167.833 24.6227 167.134 23.879 166.643 22.9324C166.151 21.9858 165.905 20.9115 165.905 19.7095C165.905 18.5226 166.144 17.4558 166.623 16.5092C167.115 15.5476 167.781 14.8038 168.622 14.278C169.476 13.7371 170.427 13.4666 171.475 13.4666C172.497 13.4666 173.422 13.722 174.25 14.2329C175.078 14.7437 175.725 15.48 176.191 16.4416C176.669 17.3882 176.909 18.4925 176.909 19.7546ZM171.494 16.1261C170.809 16.1261 170.233 16.3514 169.767 16.8022C169.301 17.2529 169.017 17.869 168.913 18.6503H174.056C173.952 17.884 173.668 17.2755 173.202 16.8247C172.736 16.3589 172.167 16.1261 171.494 16.1261Z" fill="white"/>
<path d="M181.525 15.2471C181.887 14.6611 182.372 14.2179 182.98 13.9174C183.601 13.6169 184.313 13.4666 185.115 13.4666V16.712C184.779 16.682 184.552 16.667 184.436 16.667C183.569 16.667 182.89 16.9524 182.398 17.5234C181.906 18.0793 181.661 18.9207 181.661 20.0476V25.7722H178.633V13.6469H181.525V15.2471Z" fill="white"/>
<path d="M187.655 25.9525C187.125 25.9525 186.679 25.7421 186.316 25.3214C185.954 24.9007 185.773 24.3748 185.773 23.7438C185.773 23.0977 185.954 22.5793 186.316 22.1887C186.679 21.783 187.125 21.5802 187.655 21.5802C188.186 21.5802 188.632 21.783 188.994 22.1887C189.357 22.5793 189.538 23.0977 189.538 23.7438C189.538 24.3748 189.357 24.9007 188.994 25.3214C188.632 25.7421 188.186 25.9525 187.655 25.9525Z" fill="white"/>
<path d="M194.19 15.2471C194.552 14.6611 195.037 14.2179 195.646 13.9174C196.267 13.6169 196.978 13.4666 197.78 13.4666V16.712C197.444 16.682 197.217 16.667 197.101 16.667C196.234 16.667 195.555 16.9524 195.063 17.5234C194.572 18.0793 194.326 18.9207 194.326 20.0476V25.7722H191.298V13.6469H194.19V15.2471Z" fill="white"/>
<path d="M209.884 13.6469V25.7722H207.011V24.3298C206.61 24.8556 206.132 25.2613 205.575 25.5468C205.019 25.8172 204.417 25.9525 203.77 25.9525C202.399 25.9525 201.312 25.4942 200.51 24.5777C199.708 23.6611 199.307 22.3014 199.307 20.4984V13.6469H202.334V19.98C202.334 21.9333 203.039 22.9099 204.45 22.9099C205.174 22.9099 205.756 22.6394 206.196 22.0985C206.636 21.5426 206.856 20.7237 206.856 19.6419V13.6469H209.884Z" fill="white"/>
<path d="M56.1271 34.8326H56.774V41.5188L61.5869 34.8326H62.1562V42.6757H61.5093V35.9895L56.6964 42.6757H56.1271V34.8326Z" fill="white"/>
<path d="M67.2749 34.8326H67.9218V38.4086H72.5018V34.8326H73.1487V42.6757H72.5018V39.0697H67.9218V42.6757H67.2749V34.8326Z" fill="white"/>
<path d="M82.7863 35.5087H80.147V42.6757H79.5001V35.5087H76.8608V34.8326H82.7863V35.5087Z" fill="white"/>
<path d="M91.9417 38.9344H86.1326C86.1498 39.5455 86.2835 40.0914 86.5337 40.5722C86.7838 41.043 87.1202 41.4086 87.5428 41.669C87.9741 41.9294 88.4571 42.0597 88.9918 42.0597C89.4317 42.0597 89.8371 41.9695 90.208 41.7892C90.5875 41.5989 90.9023 41.3234 91.1525 40.9628L91.5277 41.4587C91.2344 41.8693 90.8635 42.1849 90.415 42.4052C89.9751 42.6256 89.4964 42.7358 88.9789 42.7358C88.3061 42.7358 87.7067 42.5655 87.1806 42.2249C86.6544 41.8844 86.2404 41.4136 85.9385 40.8126C85.6453 40.2116 85.4986 39.5254 85.4986 38.7541C85.4986 37.9929 85.6366 37.3117 85.9126 36.7107C86.1973 36.0997 86.5854 35.6239 87.077 35.2833C87.5687 34.9428 88.1207 34.7725 88.7331 34.7725C89.3455 34.7725 89.8932 34.9428 90.3762 35.2833C90.8678 35.6139 91.2517 36.0797 91.5277 36.6807C91.8123 37.2817 91.9546 37.9628 91.9546 38.7241L91.9417 38.9344ZM88.7331 35.4336C88.2587 35.4336 87.8318 35.5588 87.4522 35.8092C87.0727 36.0496 86.7665 36.3952 86.5337 36.8459C86.3094 37.2867 86.18 37.7875 86.1455 38.3485H91.3207C91.2948 37.7875 91.1654 37.2867 90.9325 36.8459C90.6996 36.4052 90.3934 36.0596 90.0139 35.8092C89.6344 35.5588 89.2075 35.4336 88.7331 35.4336Z" fill="white"/>
<path d="M99.7998 34.7725C100.429 34.7725 100.999 34.9428 101.508 35.2833C102.016 35.6239 102.413 36.0947 102.698 36.6957C102.991 37.2967 103.138 37.9828 103.138 38.7541C103.138 39.5254 102.991 40.2166 102.698 40.8276C102.413 41.4286 102.016 41.8994 101.508 42.24C100.999 42.5705 100.429 42.7358 99.7998 42.7358C99.2047 42.7358 98.6656 42.5755 98.1826 42.255C97.6995 41.9244 97.3243 41.4687 97.057 40.8877V45.5906H96.4101V34.8326H97.0311V36.6807C97.2985 36.0797 97.6737 35.6139 98.1567 35.2833C98.6483 34.9428 99.196 34.7725 99.7998 34.7725ZM99.761 42.0597C100.278 42.0597 100.744 41.9194 101.158 41.639C101.572 41.3585 101.896 40.9678 102.129 40.467C102.37 39.9662 102.491 39.3952 102.491 38.7541C102.491 38.1131 102.37 37.5421 102.129 37.0413C101.896 36.5404 101.572 36.1498 101.158 35.8693C100.744 35.5888 100.278 35.4486 99.761 35.4486C99.2435 35.4486 98.7777 35.5888 98.3637 35.8693C97.9583 36.1498 97.6349 36.5404 97.3934 37.0413C97.1605 37.5421 97.044 38.1131 97.044 38.7541C97.044 39.3952 97.1605 39.9662 97.3934 40.467C97.6349 40.9678 97.9583 41.3585 98.3637 41.639C98.7777 41.9194 99.2435 42.0597 99.761 42.0597Z" fill="white"/>
<path d="M107.57 34.8326H108.217V38.4086H112.797V34.8326H113.444V42.6757H112.797V39.0697H108.217V42.6757H107.57V34.8326Z" fill="white"/>
<path d="M124.324 38.9344H118.515C118.532 39.5455 118.666 40.0914 118.916 40.5722C119.166 41.043 119.502 41.4086 119.925 41.669C120.356 41.9294 120.839 42.0597 121.374 42.0597C121.814 42.0597 122.219 41.9695 122.59 41.7892C122.969 41.5989 123.284 41.3234 123.534 40.9628L123.91 41.4587C123.616 41.8693 123.245 42.1849 122.797 42.4052C122.357 42.6256 121.878 42.7358 121.361 42.7358C120.688 42.7358 120.089 42.5655 119.563 42.2249C119.036 41.8844 118.622 41.4136 118.32 40.8126C118.027 40.2116 117.881 39.5254 117.881 38.7541C117.881 37.9929 118.019 37.3117 118.295 36.7107C118.579 36.0997 118.967 35.6239 119.459 35.2833C119.951 34.9428 120.503 34.7725 121.115 34.7725C121.727 34.7725 122.275 34.9428 122.758 35.2833C123.25 35.6139 123.634 36.0797 123.91 36.6807C124.194 37.2817 124.337 37.9628 124.337 38.7241L124.324 38.9344ZM121.115 35.4336C120.641 35.4336 120.214 35.5588 119.834 35.8092C119.455 36.0496 119.149 36.3952 118.916 36.8459C118.691 37.2867 118.562 37.7875 118.528 38.3485H123.703C123.677 37.7875 123.547 37.2867 123.314 36.8459C123.082 36.4052 122.775 36.0596 122.396 35.8092C122.016 35.5588 121.589 35.4336 121.115 35.4336Z" fill="white"/>
<path d="M132.979 35.5087H130.339V42.6757H129.692V35.5087H127.053V34.8326H132.979V35.5087Z" fill="white"/>
<path d="M135.756 38.3034H139.081V38.9795H135.756V38.3034Z" fill="white"/>
<path d="M150.956 34.8326V42.6757H150.361V36.0346L147.424 41.669H147.127L144.203 36.0496V42.6757H143.608V34.8326H144.242L147.295 40.7675L150.361 34.8326H150.956Z" fill="white"/>
<path d="M158.32 34.7725C159.157 34.7725 159.799 35.0229 160.248 35.5237C160.696 36.0146 160.921 36.7408 160.921 37.7024V42.6757H160.3V41.2784C160.084 41.7391 159.769 42.0997 159.355 42.3602C158.941 42.6106 158.445 42.7358 157.867 42.7358C157.117 42.7358 156.522 42.5304 156.082 42.1198C155.651 41.7091 155.435 41.1682 155.435 40.497C155.435 39.846 155.633 39.3201 156.03 38.9194C156.436 38.5087 157.078 38.3034 157.958 38.3034H160.274V37.6723C160.274 36.9411 160.101 36.3852 159.756 36.0045C159.42 35.6239 158.924 35.4336 158.268 35.4336C157.82 35.4336 157.389 35.5237 156.975 35.704C156.569 35.8843 156.224 36.1247 155.94 36.4252L155.616 35.8843C155.953 35.5338 156.358 35.2633 156.832 35.073C157.307 34.8726 157.803 34.7725 158.32 34.7725ZM157.958 42.1198C158.519 42.1198 158.993 41.9695 159.381 41.669C159.778 41.3685 160.075 40.9328 160.274 40.3618V38.8894H157.971C157.307 38.8894 156.824 39.0296 156.522 39.3101C156.229 39.5905 156.082 39.9762 156.082 40.467C156.082 40.9779 156.246 41.3835 156.574 41.684C156.901 41.9745 157.363 42.1198 157.958 42.1198Z" fill="white"/>
<path d="M170.497 35.5087H166.525V42.6757H165.878V34.8326H170.497V35.5087Z" fill="white"/>
<path d="M176.446 34.7725C177.283 34.7725 177.926 35.0229 178.374 35.5237C178.823 36.0146 179.047 36.7408 179.047 37.7024V42.6757H178.426V41.2784C178.21 41.7391 177.895 42.0997 177.481 42.3602C177.067 42.6106 176.571 42.7358 175.993 42.7358C175.243 42.7358 174.648 42.5304 174.208 42.1198C173.777 41.7091 173.561 41.1682 173.561 40.497C173.561 39.846 173.76 39.3201 174.156 38.9194C174.562 38.5087 175.204 38.3034 176.084 38.3034H178.4V37.6723C178.4 36.9411 178.227 36.3852 177.882 36.0045C177.546 35.6239 177.05 35.4336 176.395 35.4336C175.946 35.4336 175.515 35.5237 175.101 35.704C174.695 35.8843 174.35 36.1247 174.066 36.4252L173.742 35.8843C174.079 35.5338 174.484 35.2633 174.958 35.073C175.433 34.8726 175.929 34.7725 176.446 34.7725ZM176.084 42.1198C176.645 42.1198 177.119 41.9695 177.507 41.669C177.904 41.3685 178.202 40.9328 178.4 40.3618V38.8894H176.097C175.433 38.8894 174.95 39.0296 174.648 39.3101C174.355 39.5905 174.208 39.9762 174.208 40.467C174.208 40.9779 174.372 41.3835 174.7 41.684C175.027 41.9745 175.489 42.1198 176.084 42.1198Z" fill="white"/>
<path d="M186.828 38.5889C187.329 38.699 187.712 38.9194 187.98 39.25C188.256 39.5705 188.394 39.9662 188.394 40.4369C188.394 40.8977 188.26 41.3034 187.993 41.654C187.734 42.0046 187.38 42.275 186.932 42.4653C186.483 42.6557 185.996 42.7508 185.47 42.7508C184.987 42.7508 184.512 42.6657 184.047 42.4954C183.59 42.3151 183.188 42.0597 182.843 41.7291L183.102 41.1732C183.404 41.4737 183.762 41.7041 184.176 41.8643C184.599 42.0246 185.026 42.1047 185.457 42.1047C186.095 42.1047 186.634 41.9495 187.074 41.639C187.514 41.3184 187.734 40.8977 187.734 40.3768C187.734 39.9161 187.549 39.5555 187.178 39.295C186.815 39.0246 186.324 38.8894 185.703 38.8894H184.616V38.3184H185.677C186.22 38.3184 186.664 38.1932 187.009 37.9428C187.363 37.6924 187.54 37.3568 187.54 36.9361C187.54 36.4453 187.346 36.0696 186.958 35.8092C186.578 35.5388 186.091 35.4035 185.496 35.4035C184.737 35.4035 184.021 35.6289 183.348 36.0797L183.154 35.4787C183.913 34.9878 184.719 34.7424 185.573 34.7424C186.324 34.7424 186.949 34.9327 187.449 35.3134C187.95 35.684 188.2 36.1898 188.2 36.8309C188.2 37.2416 188.075 37.6022 187.825 37.9127C187.574 38.2232 187.242 38.4486 186.828 38.5889Z" fill="white"/>
<path d="M192.979 34.8326H193.625V41.5188L198.438 34.8326H199.008V42.6757H198.361V35.9895L193.548 42.6757H192.979V34.8326Z" fill="white"/>
<path d="M204.126 34.8326H204.773V38.4086H209.353V34.8326H210V42.6757H209.353V39.0697H204.773V42.6757H204.126V34.8326Z" fill="white"/>
</svg>
