<svg width="193" height="53" viewBox="0 0 193 53" fill="none" xmlns="http://www.w3.org/2000/svg">
<path d="M28.9068 21.4073C32.5138 23.5425 32.5138 28.7623 28.9068 30.8976L8.45968 43.0019C4.78382 45.178 0.136352 42.5284 0.136353 38.2567L0.136354 14.0481C0.136354 9.77644 4.78383 7.12688 8.45969 9.30293L28.9068 21.4073Z" fill="#9C9C9C"/>
<path d="M36.5075 22.1217C39.5556 23.9432 39.5556 28.3588 36.5075 30.1802L14.871 43.1092C11.7423 44.9787 7.76954 42.7246 7.76954 39.0799L7.76954 13.222C7.76954 9.57731 11.7423 7.32322 14.871 9.19276L36.5075 22.1217Z" stroke="#979797" stroke-width="1.641"/>
<path d="M61.108 12.5423L57.0593 23.686H54.1877L50.1569 12.5423H53.0284L55.6859 20.1234L58.4326 12.5423H61.108Z" fill="#9C9C9C"/>
<path d="M61.9758 12.5423H64.7582V23.686H61.9758V12.5423ZM63.367 10.9889C62.8557 10.9889 62.4395 10.8162 62.1185 10.471C61.7975 10.1258 61.6369 9.69774 61.6369 9.18681C61.6369 8.67589 61.7975 8.24782 62.1185 7.9026C62.4395 7.55738 62.8557 7.38477 63.367 7.38477C63.8783 7.38477 64.2945 7.55047 64.6155 7.88188C64.9365 8.21329 65.0971 8.62756 65.0971 9.12467C65.0971 9.66322 64.9365 10.112 64.6155 10.471C64.2945 10.8162 63.8783 10.9889 63.367 10.9889Z" fill="#9C9C9C"/>
<path d="M76.8469 8.31686V23.686H74.1894V22.4018C73.4997 23.3684 72.5009 23.8517 71.193 23.8517C70.2893 23.8517 69.4689 23.617 68.7317 23.1475C68.0063 22.678 67.4356 22.0083 67.0194 21.1383C66.6033 20.2684 66.3952 19.2603 66.3952 18.1142C66.3952 16.9681 66.6033 15.96 67.0194 15.0901C67.4356 14.2201 68.0063 13.5504 68.7317 13.0809C69.4689 12.6114 70.2893 12.3766 71.193 12.3766C72.4177 12.3766 73.3749 12.8254 74.0645 13.723V8.31686H76.8469ZM71.6745 21.2005C72.3761 21.2005 72.9587 20.9243 73.4224 20.3719C73.8862 19.8058 74.118 19.0532 74.118 18.1142C74.118 17.1752 73.8862 16.4295 73.4224 15.8772C72.9587 15.311 72.3761 15.0279 71.6745 15.0279C70.9611 15.0279 70.3725 15.311 69.9088 15.8772C69.4451 16.4295 69.2132 17.1752 69.2132 18.1142C69.2132 19.0532 69.4451 19.8058 69.9088 20.3719C70.3725 20.9243 70.9611 21.2005 71.6745 21.2005Z" fill="#9C9C9C"/>
<path d="M88.554 18.1556C88.554 18.197 88.5361 18.487 88.5005 19.0256H81.2413C81.3721 19.716 81.6813 20.2615 82.1688 20.6619C82.6563 21.0624 83.2627 21.2626 83.988 21.2626C84.4874 21.2626 84.9274 21.1797 85.3079 21.014C85.7003 20.8345 86.0629 20.5583 86.3958 20.1855L87.8762 22.0497C86.9725 23.2511 85.6527 23.8517 83.9167 23.8517C82.8346 23.8517 81.8775 23.6101 81.0451 23.1268C80.2128 22.6297 79.5707 21.9461 79.1189 21.0762C78.667 20.2062 78.4411 19.2189 78.4411 18.1142C78.4411 17.0233 78.6611 16.0429 79.101 15.1729C79.5529 14.2892 80.1652 13.6056 80.9381 13.1223C81.7229 12.6252 82.5968 12.3766 83.56 12.3766C84.4993 12.3766 85.3495 12.6114 86.1105 13.0809C86.8715 13.5504 87.466 14.227 87.8941 15.1108C88.334 15.9807 88.554 16.9957 88.554 18.1556ZM83.5778 14.8208C82.9476 14.8208 82.4185 15.0279 81.9904 15.4422C81.5624 15.8565 81.3008 16.4226 81.2057 17.1407H85.9321C85.837 16.4364 85.5754 15.8772 85.1473 15.4629C84.7193 15.0348 84.1961 14.8208 83.5778 14.8208Z" fill="#9C9C9C"/>
<path d="M94.7048 23.8517C93.6941 23.8517 92.7845 23.6101 91.9759 23.1268C91.1793 22.6297 90.555 21.9461 90.1032 21.0762C89.6513 20.2062 89.4254 19.2189 89.4254 18.1142C89.4254 17.0095 89.6513 16.0222 90.1032 15.1522C90.555 14.2823 91.1793 13.6056 91.9759 13.1223C92.7845 12.6252 93.6941 12.3766 94.7048 12.3766C95.7155 12.3766 96.6192 12.6252 97.4158 13.1223C98.2125 13.6056 98.8367 14.2823 99.2886 15.1522C99.7404 16.0222 99.9663 17.0095 99.9663 18.1142C99.9663 19.2189 99.7404 20.2062 99.2886 21.0762C98.8367 21.9461 98.2125 22.6297 97.4158 23.1268C96.6192 23.6101 95.7155 23.8517 94.7048 23.8517ZM94.7048 21.2005C95.4182 21.2005 96.0008 20.9243 96.4527 20.3719C96.9164 19.8058 97.1483 19.0532 97.1483 18.1142C97.1483 17.1752 96.9164 16.4295 96.4527 15.8772C96.0008 15.311 95.4182 15.0279 94.7048 15.0279C93.9914 15.0279 93.4028 15.311 92.939 15.8772C92.4753 16.4295 92.2435 17.1752 92.2435 18.1142C92.2435 19.0532 92.4753 19.8058 92.939 20.3719C93.4028 20.9243 93.9914 21.2005 94.7048 21.2005Z" fill="#9C9C9C"/>
<path d="M101.376 16.5607H106.424V19.1499H101.376V16.5607Z" fill="#9C9C9C"/>
<path d="M111.573 23.8517C110.777 23.8517 109.998 23.7413 109.237 23.5203C108.476 23.2856 107.87 22.9956 107.418 22.6504L108.345 20.3305C108.773 20.6481 109.291 20.9105 109.897 21.1176C110.503 21.3109 111.098 21.4076 111.68 21.4076C112.858 21.4076 113.446 21.0693 113.446 20.3926C113.446 20.075 113.286 19.8472 112.965 19.7091C112.644 19.571 112.15 19.4536 111.484 19.357C110.7 19.2189 110.051 19.0601 109.54 18.8806C109.029 18.7011 108.583 18.3835 108.203 17.9278C107.834 17.4721 107.65 16.8231 107.65 15.9807C107.65 15.2765 107.822 14.6551 108.167 14.1165C108.524 13.5642 109.035 13.1361 109.701 12.8323C110.378 12.5285 111.175 12.3766 112.091 12.3766C112.768 12.3766 113.44 12.4664 114.106 12.6459C114.784 12.8116 115.343 13.0464 115.783 13.3502L114.855 15.6493C114.011 15.097 113.09 14.8208 112.091 14.8208C111.496 14.8208 111.05 14.9175 110.753 15.1108C110.456 15.3041 110.307 15.5527 110.307 15.8565C110.307 16.2017 110.468 16.4433 110.789 16.5814C111.11 16.7195 111.621 16.8507 112.323 16.975C113.107 17.1269 113.749 17.2926 114.249 17.4721C114.748 17.6378 115.182 17.9485 115.551 18.4042C115.919 18.8599 116.104 19.4951 116.104 20.3098C116.104 21.0002 115.925 21.6147 115.569 22.1533C115.212 22.6918 114.689 23.113 113.999 23.4168C113.321 23.7068 112.513 23.8517 111.573 23.8517Z" fill="#9C9C9C"/>
<path d="M123.385 12.3766C124.574 12.3766 125.531 12.7909 126.257 13.6194C126.994 14.448 127.363 15.6769 127.363 17.3064V23.686H124.58V17.8035C124.58 16.9197 124.414 16.2638 124.081 15.8357C123.748 15.3939 123.266 15.1729 122.636 15.1729C121.935 15.1729 121.376 15.4284 120.96 15.9393C120.543 16.4364 120.335 17.1821 120.335 18.1763V23.686H117.553V8.31686H120.335V13.7023C120.704 13.2742 121.15 12.9497 121.673 12.7288C122.196 12.494 122.767 12.3766 123.385 12.3766Z" fill="#9C9C9C"/>
<path d="M134.288 23.8517C133.277 23.8517 132.367 23.6101 131.559 23.1268C130.762 22.6297 130.138 21.9461 129.686 21.0762C129.234 20.2062 129.008 19.2189 129.008 18.1142C129.008 17.0095 129.234 16.0222 129.686 15.1522C130.138 14.2823 130.762 13.6056 131.559 13.1223C132.367 12.6252 133.277 12.3766 134.288 12.3766C135.298 12.3766 136.202 12.6252 136.999 13.1223C137.795 13.6056 138.419 14.2823 138.871 15.1522C139.323 16.0222 139.549 17.0095 139.549 18.1142C139.549 19.2189 139.323 20.2062 138.871 21.0762C138.419 21.9461 137.795 22.6297 136.999 23.1268C136.202 23.6101 135.298 23.8517 134.288 23.8517ZM134.288 21.2005C135.001 21.2005 135.584 20.9243 136.035 20.3719C136.499 19.8058 136.731 19.0532 136.731 18.1142C136.731 17.1752 136.499 16.4295 136.035 15.8772C135.584 15.311 135.001 15.0279 134.288 15.0279C133.574 15.0279 132.986 15.311 132.522 15.8772C132.058 16.4295 131.826 17.1752 131.826 18.1142C131.826 19.0532 132.058 19.8058 132.522 20.3719C132.986 20.9243 133.574 21.2005 134.288 21.2005Z" fill="#9C9C9C"/>
<path d="M146.813 12.3766C147.705 12.3766 148.513 12.6183 149.239 13.1016C149.976 13.5711 150.553 14.2408 150.969 15.1108C151.385 15.9669 151.593 16.9681 151.593 18.1142C151.593 19.2603 151.385 20.2684 150.969 21.1383C150.553 21.9945 149.976 22.6642 149.239 23.1475C148.513 23.617 147.705 23.8517 146.813 23.8517C145.588 23.8517 144.625 23.403 143.924 22.5054V27.7044H141.141V12.5423H143.799V13.8266C144.489 12.86 145.493 12.3766 146.813 12.3766ZM146.332 21.2005C147.045 21.2005 147.628 20.9243 148.079 20.3719C148.543 19.8058 148.775 19.0532 148.775 18.1142C148.775 17.1752 148.543 16.4295 148.079 15.8772C147.628 15.311 147.045 15.0279 146.332 15.0279C145.618 15.0279 145.03 15.311 144.566 15.8772C144.114 16.4295 143.888 17.1752 143.888 18.1142C143.888 19.0532 144.114 19.8058 144.566 20.3719C145.03 20.9243 145.618 21.2005 146.332 21.2005Z" fill="#9C9C9C"/>
<path d="M162.588 18.1556C162.588 18.197 162.57 18.487 162.534 19.0256H155.275C155.406 19.716 155.715 20.2615 156.202 20.6619C156.69 21.0624 157.296 21.2626 158.022 21.2626C158.521 21.2626 158.961 21.1797 159.341 21.014C159.734 20.8345 160.097 20.5583 160.429 20.1855L161.91 22.0497C161.006 23.2511 159.686 23.8517 157.95 23.8517C156.868 23.8517 155.911 23.6101 155.079 23.1268C154.246 22.6297 153.604 21.9461 153.152 21.0762C152.701 20.2062 152.475 19.2189 152.475 18.1142C152.475 17.0233 152.695 16.0429 153.135 15.1729C153.586 14.2892 154.199 13.6056 154.972 13.1223C155.756 12.6252 156.63 12.3766 157.594 12.3766C158.533 12.3766 159.383 12.6114 160.144 13.0809C160.905 13.5504 161.5 14.227 161.928 15.1108C162.368 15.9807 162.588 16.9957 162.588 18.1556ZM157.611 14.8208C156.981 14.8208 156.452 15.0279 156.024 15.4422C155.596 15.8565 155.334 16.4226 155.239 17.1407H159.966C159.871 16.4364 159.609 15.8772 159.181 15.4629C158.753 15.0348 158.23 14.8208 157.611 14.8208Z" fill="#9C9C9C"/>
<path d="M166.83 14.013C167.163 13.4744 167.609 13.0671 168.168 12.7909C168.738 12.5147 169.392 12.3766 170.13 12.3766V15.3593C169.82 15.3317 169.612 15.3179 169.505 15.3179C168.709 15.3179 168.084 15.5803 167.633 16.105C167.181 16.6159 166.955 17.3892 166.955 18.4249V23.686H164.172V12.5423H166.83V14.013Z" fill="#9C9C9C"/>
<path d="M172.464 23.8517C171.977 23.8517 171.566 23.6584 171.234 23.2718C170.901 22.8851 170.734 22.4018 170.734 21.8219C170.734 21.2281 170.901 20.7517 171.234 20.3926C171.566 20.0198 171.977 19.8334 172.464 19.8334C172.952 19.8334 173.362 20.0198 173.695 20.3926C174.028 20.7517 174.194 21.2281 174.194 21.8219C174.194 22.4018 174.028 22.8851 173.695 23.2718C173.362 23.6584 172.952 23.8517 172.464 23.8517Z" fill="#9C9C9C"/>
<path d="M178.47 14.013C178.803 13.4744 179.249 13.0671 179.808 12.7909C180.378 12.5147 181.032 12.3766 181.769 12.3766V15.3593C181.46 15.3317 181.252 15.3179 181.145 15.3179C180.349 15.3179 179.724 15.5803 179.272 16.105C178.821 16.6159 178.595 17.3892 178.595 18.4249V23.686H175.812V12.5423H178.47V14.013Z" fill="#9C9C9C"/>
<path d="M192.893 12.5423V23.686H190.253V22.3604C189.885 22.8437 189.445 23.2165 188.933 23.4789C188.422 23.7275 187.869 23.8517 187.275 23.8517C186.014 23.8517 185.016 23.4306 184.278 22.5882C183.541 21.7459 183.172 20.4962 183.172 18.8392V12.5423H185.955V18.3628C185.955 20.1579 186.603 21.0555 187.899 21.0555C188.565 21.0555 189.1 20.8069 189.504 20.3098C189.908 19.7989 190.111 19.0463 190.111 18.0521V12.5423H192.893Z" fill="#9C9C9C"/>
<path d="M51.5835 32.0125H52.178V38.1575L56.6013 32.0125H57.1245V39.2207H56.5299V33.0758L52.1067 39.2207H51.5835V32.0125Z" fill="#9C9C9C"/>
<path d="M61.8288 32.0125H62.4233V35.299H66.6326V32.0125H67.2271V39.2207H66.6326V35.9066H62.4233V39.2207H61.8288V32.0125Z" fill="#9C9C9C"/>
<path d="M76.0846 32.6339H73.6589V39.2207H73.0644V32.6339H70.6387V32.0125H76.0846V32.6339Z" fill="#9C9C9C"/>
<path d="M84.4988 35.7823H79.1599C79.1758 36.3439 79.2987 36.8456 79.5285 37.2875C79.7584 37.7202 80.0676 38.0562 80.456 38.2955C80.8524 38.5349 81.2963 38.6546 81.7877 38.6546C82.192 38.6546 82.5646 38.5717 82.9054 38.406C83.2542 38.2311 83.5436 37.9779 83.7734 37.6465L84.1183 38.1022C83.8488 38.4797 83.5079 38.7696 83.0957 38.9722C82.6914 39.1747 82.2515 39.276 81.7758 39.276C81.1575 39.276 80.6066 39.1195 80.1231 38.8065C79.6395 38.4935 79.259 38.0608 78.9816 37.5084C78.7121 36.9561 78.5773 36.3255 78.5773 35.6166C78.5773 34.917 78.7041 34.291 78.9578 33.7386C79.2194 33.1771 79.5761 32.7398 80.0279 32.4268C80.4798 32.1138 80.9871 31.9573 81.5499 31.9573C82.1127 31.9573 82.6161 32.1138 83.06 32.4268C83.5119 32.7306 83.8646 33.1587 84.1183 33.711C84.3799 34.2634 84.5107 34.8894 84.5107 35.589L84.4988 35.7823ZM81.5499 32.5649C81.1139 32.5649 80.7216 32.68 80.3728 32.9101C80.024 33.1311 79.7426 33.4487 79.5285 33.8629C79.3224 34.268 79.2035 34.7283 79.1718 35.2438H83.928C83.9042 34.7283 83.7853 34.268 83.5713 33.8629C83.3573 33.4579 83.0759 33.1403 82.7271 32.9101C82.3783 32.68 81.9859 32.5649 81.5499 32.5649Z" fill="#9C9C9C"/>
<path d="M91.7207 31.9573C92.2994 31.9573 92.8226 32.1138 93.2903 32.4268C93.758 32.7398 94.1226 33.1725 94.3842 33.7248C94.6537 34.2772 94.7885 34.9078 94.7885 35.6166C94.7885 36.3255 94.6537 36.9607 94.3842 37.5222C94.1226 38.0746 93.758 38.5073 93.2903 38.8203C92.8226 39.1241 92.2994 39.276 91.7207 39.276C91.1738 39.276 90.6783 39.1287 90.2344 38.8341C89.7905 38.5303 89.4457 38.1114 89.2 37.5775V41.8996H88.6054V32.0125H89.1762V33.711C89.4219 33.1587 89.7667 32.7306 90.2107 32.4268C90.6625 32.1138 91.1659 31.9573 91.7207 31.9573ZM91.6851 38.6546C92.1607 38.6546 92.5887 38.5257 92.9692 38.2679C93.3497 38.0102 93.647 37.6511 93.861 37.1908C94.083 36.7305 94.194 36.2058 94.194 35.6166C94.194 35.0275 94.083 34.5027 93.861 34.0424C93.647 33.5821 93.3497 33.2231 92.9692 32.9653C92.5887 32.7076 92.1607 32.5787 91.6851 32.5787C91.2095 32.5787 90.7814 32.7076 90.4009 32.9653C90.0283 33.2231 89.7311 33.5821 89.5091 34.0424C89.2951 34.5027 89.1881 35.0275 89.1881 35.6166C89.1881 36.2058 89.2951 36.7305 89.5091 37.1908C89.7311 37.6511 90.0283 38.0102 90.4009 38.2679C90.7814 38.5257 91.2095 38.6546 91.6851 38.6546Z" fill="#9C9C9C"/>
<path d="M98.8621 32.0125H99.4566V35.299H103.666V32.0125H104.26V39.2207H103.666V35.9066H99.4566V39.2207H98.8621V32.0125Z" fill="#9C9C9C"/>
<path d="M114.259 35.7823H108.921C108.936 36.3439 109.059 36.8456 109.289 37.2875C109.519 37.7202 109.828 38.0562 110.217 38.2955C110.613 38.5349 111.057 38.6546 111.548 38.6546C111.953 38.6546 112.325 38.5717 112.666 38.406C113.015 38.2311 113.304 37.9779 113.534 37.6465L113.879 38.1022C113.609 38.4797 113.268 38.7696 112.856 38.9722C112.452 39.1747 112.012 39.276 111.536 39.276C110.918 39.276 110.367 39.1195 109.884 38.8065C109.4 38.4935 109.02 38.0608 108.742 37.5084C108.473 36.9561 108.338 36.3255 108.338 35.6166C108.338 34.917 108.465 34.291 108.718 33.7386C108.98 33.1771 109.337 32.7398 109.789 32.4268C110.24 32.1138 110.748 31.9573 111.31 31.9573C111.873 31.9573 112.377 32.1138 112.821 32.4268C113.272 32.7306 113.625 33.1587 113.879 33.711C114.14 34.2634 114.271 34.8894 114.271 35.589L114.259 35.7823ZM111.31 32.5649C110.875 32.5649 110.482 32.68 110.133 32.9101C109.785 33.1311 109.503 33.4487 109.289 33.8629C109.083 34.268 108.964 34.7283 108.932 35.2438H113.689C113.665 34.7283 113.546 34.268 113.332 33.8629C113.118 33.4579 112.836 33.1403 112.488 32.9101C112.139 32.68 111.746 32.5649 111.31 32.5649Z" fill="#9C9C9C"/>
<path d="M122.214 32.6339H119.788V39.2207H119.193V32.6339H116.768V32.0125H122.214V32.6339Z" fill="#9C9C9C"/>
<path d="M124.766 35.2024H127.822V35.8238H124.766V35.2024Z" fill="#9C9C9C"/>
<path d="M138.736 32.0125V39.2207H138.189V33.1172L135.49 38.2955H135.216L132.529 33.1311V39.2207H131.982V32.0125H132.565L135.371 37.467L138.189 32.0125H138.736Z" fill="#9C9C9C"/>
<path d="M145.504 31.9573C146.273 31.9573 146.863 32.1875 147.275 32.6477C147.688 33.0988 147.894 33.7663 147.894 34.65V39.2207H147.323V37.9365C147.125 38.36 146.836 38.6914 146.455 38.9307C146.075 39.1609 145.619 39.276 145.088 39.276C144.398 39.276 143.851 39.0872 143.447 38.7098C143.05 38.3324 142.852 37.8352 142.852 37.2185C142.852 36.6201 143.035 36.1368 143.399 35.7685C143.772 35.3911 144.362 35.2024 145.171 35.2024H147.299V34.6224C147.299 33.9504 147.141 33.4394 146.824 33.0896C146.514 32.7398 146.059 32.5649 145.456 32.5649C145.044 32.5649 144.648 32.6477 144.267 32.8134C143.895 32.9792 143.578 33.2001 143.316 33.4763L143.019 32.9792C143.328 32.6569 143.7 32.4084 144.136 32.2335C144.572 32.0494 145.028 31.9573 145.504 31.9573ZM145.171 38.7098C145.686 38.7098 146.122 38.5717 146.479 38.2955C146.843 38.0194 147.117 37.6189 147.299 37.0942V35.7409H145.183C144.572 35.7409 144.128 35.8698 143.851 36.1276C143.582 36.3853 143.447 36.7397 143.447 37.1908C143.447 37.6603 143.597 38.0332 143.899 38.3093C144.2 38.5763 144.624 38.7098 145.171 38.7098Z" fill="#9C9C9C"/>
<path d="M156.695 32.6339H153.044V39.2207H152.45V32.0125H156.695V32.6339Z" fill="#9C9C9C"/>
<path d="M162.163 31.9573C162.931 31.9573 163.522 32.1875 163.934 32.6477C164.346 33.0988 164.553 33.7663 164.553 34.65V39.2207H163.982V37.9365C163.784 38.36 163.494 38.6914 163.114 38.9307C162.733 39.1609 162.277 39.276 161.746 39.276C161.057 39.276 160.51 39.0872 160.106 38.7098C159.709 38.3324 159.511 37.8352 159.511 37.2185C159.511 36.6201 159.693 36.1368 160.058 35.7685C160.431 35.3911 161.021 35.2024 161.83 35.2024H163.958V34.6224C163.958 33.9504 163.799 33.4394 163.482 33.0896C163.173 32.7398 162.717 32.5649 162.115 32.5649C161.703 32.5649 161.306 32.6477 160.926 32.8134C160.553 32.9792 160.236 33.2001 159.975 33.4763L159.677 32.9792C159.987 32.6569 160.359 32.4084 160.795 32.2335C161.231 32.0494 161.687 31.9573 162.163 31.9573ZM161.83 38.7098C162.345 38.7098 162.781 38.5717 163.138 38.2955C163.502 38.0194 163.776 37.6189 163.958 37.0942V35.7409H161.842C161.231 35.7409 160.787 35.8698 160.51 36.1276C160.24 36.3853 160.106 36.7397 160.106 37.1908C160.106 37.6603 160.256 38.0332 160.557 38.3093C160.859 38.5763 161.283 38.7098 161.83 38.7098Z" fill="#9C9C9C"/>
<path d="M171.704 35.4647C172.164 35.566 172.517 35.7685 172.762 36.0723C173.016 36.3669 173.143 36.7305 173.143 37.1632C173.143 37.5867 173.02 37.9595 172.774 38.2817C172.536 38.6039 172.211 38.8525 171.799 39.0274C171.387 39.2023 170.939 39.2898 170.456 39.2898C170.012 39.2898 169.576 39.2115 169.148 39.055C168.728 38.8893 168.359 38.6546 168.042 38.3508L168.28 37.8398C168.557 38.116 168.886 38.3278 169.267 38.4751C169.655 38.6223 170.047 38.696 170.444 38.696C171.03 38.696 171.526 38.5533 171.93 38.2679C172.334 37.9733 172.536 37.5867 172.536 37.108C172.536 36.6845 172.366 36.3531 172.025 36.1137C171.692 35.8652 171.24 35.7409 170.67 35.7409H169.671V35.2162H170.646C171.145 35.2162 171.554 35.1011 171.871 34.871C172.196 34.6408 172.358 34.3324 172.358 33.9458C172.358 33.4947 172.18 33.1495 171.823 32.9101C171.474 32.6616 171.026 32.5373 170.479 32.5373C169.782 32.5373 169.124 32.7444 168.506 33.1587L168.327 32.6063C169.025 32.1552 169.766 31.9297 170.551 31.9297C171.24 31.9297 171.815 32.1046 172.275 32.4544C172.735 32.795 172.965 33.2599 172.965 33.8491C172.965 34.2265 172.85 34.558 172.62 34.8433C172.39 35.1287 172.085 35.3359 171.704 35.4647Z" fill="#9C9C9C"/>
<path d="M177.356 32.0125H177.951V38.1575L182.374 32.0125H182.897V39.2207H182.303V33.0758L177.88 39.2207H177.356V32.0125Z" fill="#9C9C9C"/>
<path d="M187.602 32.0125H188.196V35.299H192.406V32.0125H193V39.2207H192.406V35.9066H188.196V39.2207H187.602V32.0125Z" fill="#9C9C9C"/>
</svg>
